<svg width="48" height="48" viewBox="0 0 48 48" fill="none" xmlns="http://www.w3.org/2000/svg" xmlns:xlink="http://www.w3.org/1999/xlink">
<path d="M26,24C26,25.105 25.105,26 24,26L24,30C27.314,30 30,27.314 30,24L26,24ZM24,26C22.895,26 22,25.105 22,24L18,24C18,27.314 20.686,30 24,30L24,26ZM22,24C22,22.895 22.895,22 24,22L24,18C20.686,18 18,20.686 18,24L22,24ZM24,22C25.105,22 26,22.895 26,24L30,24C30,20.686 27.314,18 24,18L24,22Z" fill="#000000"/>
<path d="M33.893,14.105C33.112,13.324 31.845,13.325 31.065,14.107C30.284,14.888 30.285,16.154 31.066,16.935L33.893,14.105ZM35.999,24.01L33.999,24.01L35.999,24.01ZM31.066,31.085C30.285,31.866 30.284,33.132 31.065,33.914C31.845,34.695 33.112,34.696 33.893,33.915L31.066,31.085ZM14.106,33.895C14.888,34.676 16.154,34.675 16.935,33.894C17.715,33.112 17.715,31.846 16.933,31.065L14.106,33.895ZM12,23.99L14,23.99L12,23.99ZM16.933,16.915C17.715,16.134 17.715,14.868 16.935,14.087C16.154,13.305 14.888,13.304 14.106,14.085L16.933,16.915ZM39.554,8.446C38.773,7.665 37.507,7.665 36.726,8.446C35.945,9.227 35.944,10.493 36.725,11.274L39.554,8.446ZM36.725,36.726C35.944,37.507 35.945,38.774 36.726,39.555C37.507,40.336 38.773,40.335 39.554,39.554L36.725,36.726ZM8.445,39.554C9.226,40.335 10.492,40.336 11.274,39.555C12.055,38.774 12.055,37.507 11.274,36.726L8.445,39.554ZM4.004,24L6.004,24L4.004,24ZM11.274,11.274C12.055,10.493 12.055,9.227 11.274,8.446C10.492,7.665 9.226,7.665 8.445,8.446L11.274,11.274ZM31.066,16.935C31.996,17.864 32.734,18.967 33.237,20.181L36.932,18.649C36.227,16.949 35.195,15.405 33.893,14.105L31.066,16.935ZM33.237,20.181C33.74,21.395 33.999,22.696 33.999,24.01L37.999,24.01C37.999,22.17 37.637,20.349 36.932,18.649L33.237,20.181ZM33.999,24.01C33.999,25.324 33.74,26.626 33.237,27.84L36.932,29.371C37.637,27.672 37.999,25.85 37.999,24.01L33.999,24.01ZM33.237,27.84C32.734,29.053 31.996,30.156 31.066,31.085L33.893,33.915C35.195,32.615 36.227,31.071 36.932,29.371L33.237,27.84ZM16.933,31.065C16.003,30.136 15.266,29.033 14.762,27.82L11.067,29.351C11.772,31.051 12.805,32.595 14.106,33.895L16.933,31.065ZM14.762,27.82C14.259,26.606 14,25.304 14,23.99L10,23.99C10,25.83 10.363,27.652 11.067,29.351L14.762,27.82ZM14,23.99C14,22.676 14.259,21.375 14.762,20.161L11.067,18.629C10.363,20.329 10,22.15 10,23.99L14,23.99ZM14.762,20.161C15.266,18.947 16.003,17.844 16.933,16.915L14.106,14.085C12.805,15.385 11.772,16.929 11.067,18.629L14.762,20.161ZM36.725,11.274C40.1,14.65 41.995,19.227 41.995,24L45.995,24C45.995,18.166 43.679,12.572 39.554,8.446L36.725,11.274ZM41.995,24C41.995,28.773 40.1,33.351 36.725,36.726L39.554,39.554C43.679,35.429 45.995,29.834 45.995,24L41.995,24ZM11.274,36.726C7.9,33.351 6.004,28.773 6.004,24L2.004,24C2.004,29.834 4.321,35.429 8.445,39.554L11.274,36.726ZM6.004,24C6.004,19.227 7.9,14.65 11.274,11.274L8.445,8.446C4.321,12.572 2.004,18.166 2.004,24L6.004,24Z" fill="#000000"/>
</svg>
