<svg width="48" height="48" viewBox="0 0 48 48" fill="none" xmlns="http://www.w3.org/2000/svg" xmlns:xlink="http://www.w3.org/1999/xlink">
<path d="M26,24C26,25.105 25.105,26 24,26L24,30C27.314,30 30,27.314 30,24L26,24ZM24,26C22.895,26 22,25.105 22,24L18,24C18,27.314 20.686,30 24,30L24,26ZM22,24C22,22.895 22.895,22 24,22L24,18C20.686,18 18,20.686 18,24L22,24ZM24,22C25.105,22 26,22.895 26,24L30,24C30,20.686 27.314,18 24,18L24,22Z" fill="#000000"/>
<path d="M33.894,14.105C33.112,13.324 31.846,13.325 31.065,14.107C30.285,14.888 30.285,16.154 31.067,16.935L33.894,14.105ZM36,24.01L34,24.01L36,24.01ZM31.067,31.085C30.285,31.866 30.285,33.132 31.065,33.914C31.846,34.695 33.112,34.696 33.894,33.915L31.067,31.085ZM14.107,33.895C14.888,34.676 16.155,34.675 16.935,33.894C17.716,33.112 17.715,31.846 16.934,31.065L14.107,33.895ZM12.001,23.99L14.001,23.99L12.001,23.99ZM16.934,16.915C17.715,16.134 17.716,14.868 16.935,14.087C16.155,13.305 14.888,13.304 14.107,14.085L16.934,16.915ZM39.555,8.446C38.774,7.665 37.507,7.665 36.726,8.446C35.945,9.227 35.945,10.493 36.726,11.274L39.555,8.446ZM36.726,36.726C35.945,37.507 35.945,38.774 36.726,39.555C37.507,40.336 38.774,40.335 39.555,39.554L36.726,36.726ZM8.446,39.554C9.227,40.335 10.493,40.336 11.274,39.555C12.055,38.774 12.055,37.507 11.275,36.726L8.446,39.554ZM4.004,24L6.004,24L4.004,24ZM11.275,11.274C12.055,10.493 12.055,9.227 11.274,8.446C10.493,7.665 9.227,7.665 8.446,8.446L11.275,11.274ZM31.067,16.935C31.996,17.864 32.734,18.967 33.237,20.181L36.932,18.649C36.228,16.949 35.195,15.405 33.894,14.105L31.067,16.935ZM33.237,20.181C33.741,21.395 34,22.696 34,24.01L38,24.01C38,22.17 37.637,20.349 36.932,18.649L33.237,20.181ZM34,24.01C34,25.324 33.741,26.626 33.237,27.84L36.932,29.371C37.637,27.672 38,25.85 38,24.01L34,24.01ZM33.237,27.84C32.734,29.053 31.996,30.156 31.067,31.085L33.894,33.915C35.195,32.615 36.228,31.071 36.932,29.371L33.237,27.84ZM16.934,31.065C16.004,30.136 15.266,29.033 14.763,27.82L11.068,29.351C11.772,31.051 12.805,32.595 14.107,33.895L16.934,31.065ZM14.763,27.82C14.26,26.606 14.001,25.304 14.001,23.99L10.001,23.99C10.001,25.83 10.363,27.652 11.068,29.351L14.763,27.82ZM14.001,23.99C14.001,22.676 14.26,21.375 14.763,20.161L11.068,18.629C10.363,20.329 10.001,22.15 10.001,23.99L14.001,23.99ZM14.763,20.161C15.266,18.947 16.004,17.844 16.934,16.915L14.107,14.085C12.805,15.385 11.772,16.929 11.068,18.629L14.763,20.161ZM36.726,11.274C40.1,14.65 41.996,19.227 41.996,24L45.996,24C45.996,18.166 43.679,12.572 39.555,8.446L36.726,11.274ZM41.996,24C41.996,28.773 40.1,33.351 36.726,36.726L39.555,39.554C43.679,35.429 45.996,29.834 45.996,24L41.996,24ZM11.275,36.726C7.9,33.351 6.004,28.773 6.004,24L2.004,24C2.004,29.834 4.321,35.429 8.446,39.554L11.275,36.726ZM6.004,24C6.004,19.227 7.9,14.65 11.275,11.274L8.446,8.446C4.321,12.572 2.004,18.166 2.004,24L6.004,24Z" fill="#000000"/>
</svg>
